<svg width="680" height="566" viewBox="0 0 680 566" fill="none" xmlns="http://www.w3.org/2000/svg">
<path d="M562.019 140.081L204.115 6.34899C191.253 1.54452 177.54 -0.571492 163.826 0.131852C150.112 0.835197 136.688 4.34294 124.385 10.4381C112.082 16.5332 101.161 25.0861 92.299 35.5675C83.4365 46.049 76.8206 58.2362 72.8606 71.375L22.4805 238.452C18.1692 252.751 17.1078 267.832 19.3738 282.593C21.6398 297.354 27.176 311.423 35.5782 323.774C43.9804 336.124 55.0366 346.444 67.9396 353.979C80.8425 361.515 95.2667 366.076 110.159 367.33L503.608 400.272C522.557 401.862 541.629 399.423 559.567 393.116C577.506 386.81 593.904 376.779 607.683 363.684C621.463 350.589 632.31 334.726 639.513 317.14C646.715 299.554 650.109 280.643 649.47 261.652C648.576 235.013 639.788 209.239 624.22 187.596C608.651 165.954 587.003 149.416 562.019 140.081Z" fill="#292929"/>
<path opacity="0.9" d="M562.019 140.081L204.115 6.34899C191.253 1.54452 177.54 -0.571492 163.826 0.131852C150.112 0.835197 136.688 4.34294 124.385 10.4381C112.082 16.5332 101.161 25.0861 92.299 35.5675C83.4365 46.049 76.8206 58.2362 72.8606 71.375L22.4805 238.452C18.1692 252.751 17.1078 267.832 19.3738 282.593C21.6398 297.354 27.176 311.423 35.5782 323.774C43.9804 336.124 55.0366 346.444 67.9396 353.979C80.8425 361.515 95.2667 366.076 110.159 367.33L503.608 400.272C522.557 401.862 541.629 399.423 559.567 393.116C577.506 386.81 593.904 376.779 607.683 363.684C621.463 350.589 632.31 334.726 639.513 317.14C646.715 299.554 650.109 280.643 649.47 261.652C648.576 235.013 639.788 209.239 624.22 187.596C608.651 165.954 587.003 149.416 562.019 140.081Z" fill="white"/>
<path d="M340 566C152.223 566 0 557.119 0 546.165C0 535.21 152.223 526.329 340 526.329C527.777 526.329 680 535.21 680 546.165C680 557.119 527.777 566 340 566Z" fill="#F5F5F5"/>
<path d="M447.844 146.967H429.081C428.151 146.95 427.228 147.13 426.373 147.496C425.518 147.861 424.75 148.404 424.12 149.088C423.491 149.772 423.013 150.581 422.72 151.463C422.426 152.345 422.323 153.279 422.418 154.204L425.925 193.752C426.126 195.721 427.041 197.547 428.499 198.887C429.956 200.227 431.854 200.987 433.833 201.024H452.579C453.511 201.039 454.435 200.856 455.291 200.488C456.147 200.119 456.914 199.573 457.543 198.885C458.171 198.197 458.646 197.384 458.936 196.499C459.226 195.614 459.325 194.678 459.225 193.752L455.735 154.204C455.527 152.245 454.61 150.429 453.157 149.096C451.705 147.764 449.816 147.007 447.844 146.967Z" fill="#E2BC82"/>
<path opacity="0.2" d="M237.942 138.521H208.622C207.166 138.495 205.722 138.779 204.385 139.354C203.047 139.929 201.848 140.782 200.866 141.856C199.884 142.93 199.142 144.201 198.689 145.584C198.237 146.966 198.084 148.429 198.241 149.876L201.853 191.176C202.168 194.237 203.588 197.078 205.847 199.168C208.106 201.258 211.05 202.453 214.128 202.531H243.553C245.007 202.554 246.45 202.268 247.785 201.692C249.12 201.116 250.318 200.263 251.298 199.189C252.278 198.115 253.018 196.846 253.47 195.464C253.921 194.083 254.074 192.621 253.917 191.176L250.304 149.876C249.988 146.801 248.556 143.948 246.278 141.856C244 139.764 241.035 138.578 237.942 138.521Z" fill="#292929"/>
<path opacity="0.2" d="M243.956 207.139H214.619C213.165 207.116 211.722 207.402 210.387 207.978C209.052 208.554 207.855 209.407 206.875 210.481C205.895 211.555 205.154 212.825 204.703 214.206C204.251 215.587 204.099 217.049 204.255 218.494L207.868 259.794C208.181 262.871 209.612 265.726 211.89 267.819C214.169 269.911 217.136 271.096 220.231 271.149H249.55C251.006 271.175 252.45 270.891 253.788 270.316C255.125 269.741 256.325 268.888 257.306 267.814C258.288 266.74 259.03 265.469 259.483 264.086C259.936 262.704 260.088 261.241 259.931 259.794L256.301 218.494C255.989 215.42 254.56 212.568 252.285 210.475C250.011 208.383 247.048 207.196 243.956 207.139Z" fill="#292929"/>
<path d="M395.22 61.0893H231.857C226.592 60.9954 221.367 62.0237 216.53 64.1055C211.694 66.1872 207.357 69.2748 203.808 73.1626C200.259 77.0503 197.58 81.649 195.949 86.6524C194.317 91.6558 193.772 96.949 194.348 102.18L229.209 500.238C230.344 511.362 235.519 521.684 243.756 529.253C251.993 536.822 262.72 541.111 273.908 541.311H437.27C442.534 541.404 447.757 540.377 452.592 538.296C457.428 536.215 461.764 533.129 465.312 529.243C468.861 525.358 471.541 520.761 473.173 515.76C474.805 510.759 475.353 505.467 474.779 500.238L439.953 102.18C438.822 91.0467 433.643 80.7152 425.399 73.1422C417.154 65.5692 406.417 61.2808 395.22 61.0893Z" fill="#E2BC82"/>
<path opacity="0.2" d="M395.22 61.0893H231.857C226.592 60.9954 221.367 62.0237 216.53 64.1055C211.694 66.1872 207.357 69.2748 203.808 73.1626C200.259 77.0503 197.58 81.649 195.949 86.6524C194.317 91.6558 193.772 96.949 194.348 102.18L229.209 500.238C230.344 511.362 235.519 521.684 243.756 529.253C251.993 536.822 262.72 541.111 273.908 541.311H437.27C442.534 541.404 447.757 540.377 452.592 538.296C457.428 536.215 461.764 533.129 465.312 529.243C468.861 525.358 471.541 520.761 473.173 515.76C474.805 510.759 475.353 505.467 474.779 500.238L439.953 102.18C438.822 91.0467 433.643 80.7152 425.399 73.1422C417.154 65.5692 406.417 61.2808 395.22 61.0893Z" fill="#292929"/>
<path d="M400.498 61.0892H237.118C231.853 60.9982 226.63 62.0284 221.794 64.1111C216.959 66.1938 212.623 69.2815 209.075 73.1686C205.527 77.0557 202.847 81.6532 201.215 86.6553C199.583 91.6574 199.035 96.9495 199.609 102.179L234.47 500.238C235.608 511.36 240.785 521.681 249.02 529.249C257.256 536.816 267.981 541.108 279.168 541.311H442.531C447.795 541.407 453.02 540.381 457.857 538.302C462.693 536.222 467.03 533.136 470.58 529.249C474.129 525.363 476.808 520.765 478.44 515.763C480.071 510.76 480.616 505.468 480.04 500.238L445.214 102.179C443.215 79.4878 423.189 61.0892 400.498 61.0892Z" fill="#E2BC82"/>
<path d="M204.519 102.18L239.362 500.221C240.372 510.016 244.935 519.103 252.192 525.767C259.448 532.43 268.894 536.208 278.747 536.387H442.11C446.746 536.472 451.347 535.569 455.606 533.738C459.866 531.906 463.686 529.189 466.812 525.767C469.938 522.345 472.298 518.297 473.735 513.892C475.173 509.487 475.654 504.826 475.147 500.221L440.286 102.18C439.281 92.3838 434.722 83.2947 427.469 76.6283C420.216 69.962 410.772 66.1797 400.919 65.9956H237.556C232.919 65.9131 228.318 66.8186 224.059 68.6518C219.799 70.485 215.98 73.2037 212.854 76.6271C209.728 80.0505 207.368 84.1 205.931 88.5059C204.494 92.9118 204.012 97.5731 204.519 102.18Z" fill="white"/>
<g opacity="0.1">
<path opacity="0.1" d="M442.11 536.387H380.174L280.115 65.9956H359.026L458.243 532.409C453.276 535.045 447.734 536.412 442.11 536.387Z" fill="#292929"/>
<path opacity="0.1" d="M242.238 65.9956H257.249L357.325 536.387H342.297L242.238 65.9956Z" fill="#292929"/>
</g>
<path d="M367.127 64.8391C367.28 66.3082 367.121 67.793 366.661 69.1967C366.201 70.6005 365.451 71.8916 364.458 72.986C363.465 74.0804 362.253 74.9536 360.9 75.5485C359.547 76.1434 358.084 76.4468 356.606 76.4389H283.833C280.678 76.3707 277.657 75.1547 275.335 73.0191C273.014 70.8835 271.552 67.9749 271.224 64.8391H367.127Z" fill="#E2BC82"/>
<path d="M240.519 78.8571H224.001C223.681 78.8555 223.365 78.921 223.072 79.0495C222.78 79.1779 222.517 79.3664 222.302 79.6027C222.087 79.839 221.924 80.1177 221.824 80.421C221.724 80.7242 221.689 81.0451 221.721 81.3628L222.352 88.547C222.421 89.2244 222.735 89.8533 223.236 90.3149C223.736 90.7766 224.389 91.0391 225.07 91.0528H241.589C241.909 91.0571 242.227 90.9934 242.521 90.8659C242.815 90.7384 243.078 90.55 243.294 90.3131C243.509 90.0762 243.672 89.7962 243.771 89.4918C243.87 89.1873 243.903 88.8653 243.868 88.547L243.237 81.3628C243.169 80.6854 242.854 80.0565 242.354 79.5949C241.853 79.1332 241.2 78.8708 240.519 78.8571Z" fill="#E2BC82"/>
<path d="M416.894 78.8571H394.781C394.42 78.8527 394.062 78.9247 393.731 79.0683C393.4 79.2118 393.103 79.4238 392.859 79.6902C392.616 79.9566 392.432 80.2715 392.319 80.6141C392.205 80.9567 392.166 81.3194 392.203 81.6782L392.782 88.2316C392.859 88.9957 393.214 89.705 393.78 90.225C394.345 90.7449 395.082 91.0395 395.851 91.0528H417.963C418.324 91.0574 418.681 90.9855 419.011 90.8418C419.342 90.698 419.638 90.4858 419.88 90.219C420.122 89.9522 420.305 89.6371 420.416 89.2944C420.527 88.9518 420.563 88.5896 420.524 88.2316L419.962 81.6782C419.885 80.9141 419.53 80.2048 418.965 79.6849C418.399 79.1649 417.662 78.8704 416.894 78.8571Z" fill="#E2BC82"/>
<path opacity="0.4" d="M416.894 78.8571H394.781C394.42 78.8527 394.062 78.9247 393.731 79.0683C393.4 79.2118 393.103 79.4238 392.859 79.6902C392.616 79.9566 392.432 80.2715 392.319 80.6141C392.205 80.9567 392.166 81.3194 392.203 81.6782L392.782 88.2316C392.859 88.9957 393.214 89.705 393.78 90.225C394.345 90.7449 395.082 91.0395 395.851 91.0528H417.963C418.324 91.0574 418.681 90.9855 419.011 90.8418C419.342 90.698 419.638 90.4858 419.88 90.219C420.122 89.9522 420.305 89.6371 420.416 89.2944C420.527 88.9518 420.563 88.5896 420.524 88.2316L419.962 81.6782C419.885 80.9141 419.53 80.2048 418.965 79.6849C418.399 79.1649 417.662 78.8704 416.894 78.8571Z" fill="white"/>
<path d="M244.921 80.8897H242.326C242.208 80.8865 242.091 80.9085 241.983 80.9541C241.875 80.9998 241.777 81.0681 241.698 81.1543C241.618 81.2406 241.558 81.343 241.521 81.4545C241.484 81.566 241.471 81.6841 241.484 81.8009L242.028 88.0038C242.053 88.2518 242.169 88.4816 242.354 88.6496C242.538 88.8176 242.778 88.912 243.027 88.915H245.622C245.74 88.9182 245.857 88.8962 245.965 88.8505C246.073 88.8049 246.17 88.7366 246.25 88.6503C246.33 88.564 246.39 88.4617 246.427 88.3502C246.464 88.2387 246.477 88.1206 246.464 88.0038L245.92 81.8009C245.895 81.5529 245.779 81.3231 245.594 81.1551C245.41 80.9871 245.17 80.8927 244.921 80.8897Z" fill="#E2BC82"/>
<path d="M227.28 80.8897H224.667C224.551 80.8891 224.437 80.9129 224.33 80.9596C224.224 81.0064 224.129 81.075 224.051 81.161C223.974 81.247 223.915 81.3485 223.879 81.4588C223.843 81.569 223.831 81.6856 223.843 81.8009L224.387 88.0039C224.409 88.2503 224.521 88.4799 224.702 88.6482C224.884 88.8166 225.121 88.9116 225.369 88.915H227.982C228.098 88.9157 228.213 88.8918 228.319 88.8451C228.425 88.7983 228.52 88.7297 228.598 88.6437C228.676 88.5577 228.734 88.4562 228.77 88.346C228.806 88.2357 228.818 88.1191 228.806 88.0039L228.262 81.8009C228.241 81.5544 228.128 81.3248 227.947 81.1565C227.765 80.9882 227.528 80.8931 227.28 80.8897Z" fill="white"/>
<path d="M232.874 80.8897H230.261C230.145 80.8891 230.03 80.9129 229.924 80.9596C229.818 81.0064 229.723 81.075 229.645 81.161C229.567 81.247 229.509 81.3485 229.473 81.4588C229.437 81.569 229.425 81.6856 229.437 81.8009L229.981 88.0039C230.002 88.2503 230.115 88.4799 230.296 88.6482C230.478 88.8166 230.715 88.9116 230.963 88.915H233.575C233.691 88.9157 233.806 88.8918 233.912 88.8451C234.019 88.7983 234.114 88.7297 234.192 88.6437C234.269 88.5577 234.328 88.4562 234.364 88.346C234.4 88.2357 234.412 88.1191 234.4 88.0039L233.856 81.8009C233.834 81.5544 233.722 81.3248 233.54 81.1565C233.359 80.9882 233.122 80.8931 232.874 80.8897Z" fill="white"/>
<path d="M203.519 190.896L207.026 231.601C205.31 231.271 203.745 230.398 202.564 229.11C201.382 227.823 200.648 226.189 200.468 224.452L198.223 198.01C198.045 196.375 198.492 194.734 199.474 193.415C200.456 192.095 201.901 191.196 203.519 190.896Z" fill="#E2BC82"/>
<path opacity="0.2" d="M203.519 190.896L207.026 231.601C205.31 231.271 203.745 230.398 202.564 229.11C201.382 227.823 200.648 226.189 200.468 224.452L198.223 198.01C198.045 196.375 198.492 194.734 199.474 193.415C200.456 192.095 201.901 191.196 203.519 190.896Z" fill="#292929"/>
<path d="M199.714 146.967L203.221 187.672C201.507 187.345 199.945 186.474 198.767 185.19C197.589 183.905 196.857 182.274 196.68 180.54L194.453 154.204C194.249 152.556 194.679 150.892 195.656 149.549C196.632 148.206 198.082 147.283 199.714 146.967Z" fill="#E2BC82"/>
<path opacity="0.2" d="M199.714 146.967L203.221 187.672C201.507 187.345 199.945 186.474 198.767 185.19C197.589 183.905 196.857 182.274 196.68 180.54L194.453 154.204C194.249 152.556 194.679 150.892 195.656 149.549C196.632 148.206 198.082 147.283 199.714 146.967Z" fill="#292929"/>
<path d="M67.6878 239.854H102.11C104.901 239.854 107.577 240.961 109.55 242.933C111.523 244.905 112.632 247.579 112.632 250.367V270.728C112.609 273.502 111.49 276.153 109.519 278.106C107.549 280.059 104.886 281.154 102.11 281.154H92.2729V289.092C92.2674 289.528 92.1338 289.953 91.8888 290.314C91.6437 290.675 91.298 290.956 90.8945 291.122C90.491 291.288 90.0474 291.332 89.6191 291.248C89.1908 291.165 88.7965 290.957 88.4852 290.651L78.9984 281.154H67.6878C64.9277 281.131 62.2871 280.026 60.3354 278.075C58.3836 276.125 57.277 273.486 57.2541 270.728V250.28C57.277 247.522 58.3836 244.883 60.3354 242.933C62.2871 240.982 64.9277 239.877 67.6878 239.854Z" fill="#E2BC82"/>
<path d="M76.0171 249.596H92.5533C92.7111 248.212 92.7988 247.529 92.9566 246.092H102.058C101.865 246.88 101.76 247.266 101.567 248.054H95.0083C94.9206 248.633 94.868 248.93 94.7803 249.526C94.3419 252.417 94.1139 253.854 93.6755 256.745C93.5703 257.534 93.5002 257.919 93.3774 258.708C92.939 261.599 92.7286 263.036 92.2902 265.927C92.0447 267.487 91.922 268.258 91.694 269.8H73.4569C73.2815 269.011 73.1938 268.626 73.0009 267.837H90.2736C90.3613 267.084 90.4139 266.698 90.5016 265.927H71.7209L69.9673 258.708C69.7744 257.919 69.6867 257.534 69.4763 256.745C68.7749 253.854 68.4066 252.417 67.7227 249.526L76.0171 249.596ZM92.3078 251.541H86.4508C86.4508 253.661 86.3632 254.713 86.293 256.798H91.694L92.3078 251.541ZM90.8172 264.052C91.0803 261.932 91.203 260.881 91.4485 258.796H86.1878C86.1878 260.898 86.1001 261.95 86.03 264.052H90.8172ZM79.5768 264.052H84.329C84.329 261.932 84.329 260.881 84.329 258.796H79.0683C79.2963 260.881 79.3839 261.932 79.5768 264.052ZM78.9105 256.816H84.3115C84.3115 254.713 84.3115 253.661 84.3115 251.559H78.4546C78.6299 253.661 78.7176 254.713 78.9105 256.816ZM73.0886 264.052H77.8232C77.5602 261.932 77.4375 260.881 77.1569 258.796H71.8962L73.0886 264.052ZM71.5279 256.816H76.964C76.6834 254.713 76.5607 253.661 76.2976 251.559H70.4407C70.8616 253.661 71.0895 254.713 71.5279 256.816Z" fill="white"/>
<path d="M90.572 271.692C91.0333 271.692 91.4842 271.829 91.8677 272.085C92.2513 272.341 92.5502 272.705 92.7268 273.131C92.9033 273.557 92.9495 274.025 92.8595 274.477C92.7695 274.929 92.5473 275.345 92.2212 275.671C91.895 275.996 91.4794 276.218 91.027 276.308C90.5746 276.398 90.1057 276.352 89.6795 276.176C89.2534 275.999 88.8891 275.701 88.6328 275.317C88.3766 274.934 88.2398 274.484 88.2398 274.023C88.2398 273.405 88.4855 272.812 88.9229 272.375C89.3603 271.938 89.9535 271.692 90.572 271.692Z" fill="white"/>
<path d="M74.0534 276.336C72.7751 276.336 71.7387 275.3 71.7387 274.023C71.7387 272.745 72.7751 271.71 74.0534 271.71C75.3318 271.71 76.3682 272.745 76.3682 274.023C76.3682 275.3 75.3318 276.336 74.0534 276.336Z" fill="white"/>
<path d="M298.774 93.9614H353.415C357.922 94.041 362.243 95.7681 365.562 98.8162C368.88 101.864 370.966 106.022 371.424 110.503L374.247 142.832C374.479 144.937 374.26 147.068 373.603 149.082C372.947 151.096 371.868 152.947 370.44 154.512C369.011 156.077 367.265 157.32 365.319 158.158C363.372 158.997 361.269 159.411 359.149 159.373H343.507L344.612 171.954C344.666 172.644 344.502 173.333 344.143 173.925C343.785 174.517 343.25 174.982 342.613 175.255C341.977 175.528 341.271 175.594 340.594 175.445C339.918 175.296 339.306 174.939 338.843 174.425L322.464 159.461H304.508C300.002 159.377 295.683 157.649 292.365 154.601C289.047 151.554 286.96 147.399 286.499 142.919L283.675 110.59C283.43 108.478 283.639 106.338 284.29 104.313C284.94 102.288 286.017 100.426 287.447 98.8509C288.877 97.276 290.627 96.0249 292.581 95.1816C294.534 94.3383 296.646 93.9223 298.774 93.9614Z" fill="#E2BC82"/>
<path d="M315.117 109.416H341.333L341.509 103.984H355.94C355.748 105.228 355.642 105.842 355.449 107.086H345.033C345.033 108.014 344.946 108.488 344.893 109.416C344.595 114.007 344.437 116.303 344.139 120.894C344.139 122.12 344.016 122.751 343.946 123.995C343.648 128.568 343.49 130.864 343.21 135.455C343.034 137.908 342.964 139.134 342.806 141.588H314.013L313.013 138.486H340.421V135.455H310.611C309.067 130.864 308.296 128.568 306.77 123.995L305.736 120.894C304.193 116.303 303.421 114.007 301.895 109.416H315.117ZM341.246 112.518H331.952C332.144 115.865 332.232 117.529 332.425 120.894H340.982L341.246 112.518ZM340.614 132.353L340.877 123.995H332.6C332.793 127.342 332.899 129.006 333.091 132.353H340.614ZM322.78 132.353H330.303C330.005 129.006 329.847 127.342 329.549 123.995H321.272C321.869 127.342 322.167 129.006 322.78 132.353ZM320.711 120.911H329.269C328.953 117.547 328.813 115.882 328.515 112.535H319.203C319.817 115.865 320.115 117.529 320.711 120.911ZM312.469 132.371H319.992L318.239 124.013H309.979C310.944 127.342 311.452 129.006 312.469 132.353V132.371ZM308.962 120.911H317.555C316.836 117.547 316.485 115.882 315.801 112.535H306.507C307.489 115.865 307.998 117.529 308.997 120.911H308.962Z" fill="white"/>
<path d="M341.263 144.496C342.267 144.513 343.23 144.896 343.97 145.574C344.71 146.252 345.175 147.178 345.278 148.176C345.328 148.645 345.278 149.119 345.13 149.566C344.983 150.014 344.742 150.426 344.424 150.773C344.106 151.121 343.717 151.398 343.284 151.584C342.851 151.771 342.383 151.863 341.911 151.856C340.907 151.84 339.944 151.456 339.204 150.778C338.464 150.1 337.999 149.174 337.896 148.176C337.846 147.707 337.897 147.233 338.044 146.786C338.191 146.338 338.432 145.927 338.75 145.579C339.068 145.231 339.457 144.955 339.89 144.768C340.323 144.581 340.791 144.489 341.263 144.496Z" fill="white"/>
<path d="M315.082 144.496C316.084 144.513 317.045 144.897 317.782 145.576C318.519 146.254 318.981 147.179 319.08 148.176C319.13 148.645 319.079 149.119 318.932 149.566C318.785 150.014 318.544 150.426 318.226 150.773C317.907 151.121 317.519 151.398 317.086 151.584C316.653 151.771 316.185 151.863 315.713 151.856C314.711 151.839 313.75 151.455 313.013 150.777C312.276 150.098 311.814 149.173 311.715 148.176C311.665 147.707 311.716 147.233 311.863 146.786C312.01 146.338 312.251 145.927 312.569 145.579C312.888 145.231 313.276 144.955 313.709 144.768C314.142 144.581 314.61 144.489 315.082 144.496Z" fill="white"/>
<path d="M259.511 322.735H321.991V385.168H259.511V322.735Z" fill="#E2BC82"/>
<path d="M221.16 322.735H259.528V385.168H221.16V322.735Z" fill="#E2BC82"/>
<path d="M271.453 307.07H333.933L321.991 322.735H259.529L271.453 307.07Z" fill="#E2BC82"/>
<path opacity="0.3" d="M221.16 322.735H259.528V385.168H221.16V322.735Z" fill="white"/>
<path opacity="0.4" d="M271.453 307.07H333.933L321.991 322.735H259.529L271.453 307.07Z" fill="white"/>
<path d="M248.218 307.07H209.85L221.143 322.735H259.528L248.218 307.07Z" fill="#E2BC82"/>
<path opacity="0.6" d="M259.511 322.735H321.991V385.168H259.511V322.735Z" fill="white"/>
<path opacity="0.2" d="M248.218 307.07H209.85L221.143 322.735H259.528L248.218 307.07Z" fill="white"/>
<path d="M83.7158 383.626H241.187V540.978H83.7158V383.626Z" fill="#E2BC82"/>
<path opacity="0.4" d="M83.7158 383.626H241.187V540.978H83.7158V383.626Z" fill="white"/>
<path d="M241.221 383.626H337.948V540.978H241.221V383.626Z" fill="#E2BC82"/>
<path opacity="0.6" d="M241.221 383.626H337.948V540.978H241.221V383.626Z" fill="white"/>
<path opacity="0.5" d="M308.067 383.626V425.89L304.227 427.905L300.913 425.154L295.67 427.905L290.689 425.154L286.832 427.905L282.413 425.154L279.905 427.415V383.626H308.067Z" fill="white"/>
<path opacity="0.5" d="M279.905 540.978V498.714L283.745 496.681L287.06 499.45L292.303 496.681L297.283 499.45L301.141 496.681L305.56 499.45L308.067 497.189V540.978H279.905Z" fill="white"/>
<path d="M176.918 447.793C176.024 451.385 175.585 453.19 174.691 456.782C174.463 457.746 174.34 458.237 174.095 459.218C173.2 462.81 172.762 464.615 171.868 468.207H148.51C148.633 469.153 148.685 469.626 148.791 470.572H170.307C170.079 471.554 169.974 472.044 169.746 473.008H147.107L146.371 468.207C145.827 464.615 145.547 462.81 145.003 459.218C144.845 458.237 144.775 457.746 144.635 456.782C144.091 453.19 143.811 451.385 143.267 447.793C143.144 447.057 143.092 446.689 142.986 445.953H134.832C134.604 444.99 134.482 444.499 134.236 443.535H145.547C145.757 445.288 145.862 446.076 146.055 447.793H176.918ZM147.107 456.782H153.806C153.806 454.154 153.701 452.84 153.613 450.211H146.336C146.721 452.84 146.862 454.154 147.107 456.782ZM154.122 465.771C154.122 463.143 153.999 461.829 153.929 459.218H147.44L148.23 465.771H154.122ZM162.889 459.218H156.419C156.419 461.829 156.419 463.143 156.419 465.771H162.328C162.486 463.143 162.609 461.829 162.889 459.218ZM163.714 450.211H156.436C156.436 452.84 156.436 454.154 156.436 456.782H163.065C163.31 454.154 163.433 452.84 163.661 450.211H163.714ZM171.78 459.218H165.292C164.976 461.829 164.801 463.143 164.468 465.771H170.377L171.78 459.218ZM173.709 450.211H166.397C166.081 452.84 165.906 454.154 165.59 456.782H172.289L173.709 450.211Z" fill="white"/>
<path d="M148.58 481.069C146.982 481.069 145.687 479.774 145.687 478.177C145.687 476.581 146.982 475.286 148.58 475.286C150.178 475.286 151.474 476.581 151.474 478.177C151.474 479.774 150.178 481.069 148.58 481.069Z" fill="white"/>
<path d="M169.114 481.069C167.516 481.069 166.221 479.774 166.221 478.177C166.221 476.581 167.516 475.286 169.114 475.286C170.712 475.286 172.008 476.581 172.008 478.177C172.008 479.774 170.712 481.069 169.114 481.069Z" fill="white"/>
<g opacity="0.5">
<path opacity="0.5" d="M310.908 447.793C310.014 451.385 309.576 453.19 308.681 456.782C308.453 457.746 308.33 458.237 308.085 459.218C307.191 462.81 306.752 464.615 305.858 468.207H282.5C282.623 469.153 282.676 469.626 282.781 470.572H304.262C304.034 471.554 303.929 472.044 303.701 473.008H281.133L280.396 468.207C279.852 464.615 279.572 462.81 279.028 459.218C278.888 458.237 278.8 457.746 278.66 456.782C278.116 453.19 277.836 451.385 277.292 447.793L277.012 445.953H268.84C268.612 444.99 268.489 444.499 268.244 443.535H279.554C279.765 445.288 279.87 446.076 280.063 447.793H310.908ZM281.097 456.782H287.796L287.603 450.211H280.379C280.677 452.84 280.834 454.154 281.133 456.782H281.097ZM288.112 465.771C288.024 463.143 287.989 461.829 287.919 459.218H281.431L282.22 465.771H288.112ZM296.792 459.218H290.321C290.321 461.829 290.321 463.143 290.321 465.771H296.161C296.441 463.143 296.564 461.829 296.792 459.218ZM297.634 450.211H290.339C290.339 452.84 290.339 454.154 290.339 456.782H297.037L297.634 450.211ZM305.683 459.218H299.194L298.388 465.771H304.28L305.683 459.218ZM307.611 450.211H300.317C300.001 452.84 299.826 454.154 299.51 456.782H306.209L307.611 450.211Z" fill="white"/>
<path opacity="0.5" d="M282.535 481.068C280.937 481.068 279.642 479.774 279.642 478.177C279.642 476.58 280.937 475.286 282.535 475.286C284.133 475.286 285.429 476.58 285.429 478.177C285.429 479.774 284.133 481.068 282.535 481.068Z" fill="white"/>
<path opacity="0.5" d="M303.07 481.068C301.472 481.068 300.176 479.774 300.176 478.177C300.176 476.58 301.472 475.286 303.07 475.286C304.667 475.286 305.963 476.58 305.963 478.177C305.963 479.774 304.667 481.068 303.07 481.068Z" fill="white"/>
</g>
<path d="M141.215 258.41C141.215 258.41 135.744 297.643 130.834 304.407C125.924 311.17 103.864 329.884 103.864 329.884L89.9235 327.852L80.5769 336.613L87.3457 341.292L94.7984 337.962C99.002 338.428 103.238 338.528 107.459 338.26C114.579 337.822 142.39 318.985 147.511 309.155C152.631 299.325 158.418 262.931 158.418 262.931L141.215 258.41Z" fill="#FEBAA5"/>
<path d="M136.585 269.747L137.988 269.993C138.953 260.776 142.81 232.775 153.385 239.959C163.538 246.88 160.679 266.523 159.206 273.865L160.96 274.163L159.417 278.999L136.042 274.531L136.585 269.747Z" fill="#E2BC82"/>
<path opacity="0.2" d="M145.353 251.226L147.931 245.689L156.015 253.819L160.662 260.828C160.533 265.215 160.028 269.582 159.154 273.882L160.907 274.18L159.364 279.017L146.177 276.493C144.708 268.152 144.43 259.645 145.353 251.226Z" fill="#292929"/>
<path d="M144.547 180.82C144.547 180.82 116.665 186.848 131.483 200.095L143.758 189.389L144.547 180.82Z" fill="#292929"/>
<path d="M105.845 475.006L123.591 518.444L135.901 513.66L125.976 470.485L105.845 475.006Z" fill="#FEBAA5"/>
<path opacity="0.2" d="M125.1 467.418L132.097 497.855L116.928 501.237L104.969 471.922L125.1 467.418Z" fill="#292929"/>
<path d="M120.803 517.428C118.541 522.562 117.016 526.785 107.757 532.269C105.74 533.426 109.16 538.753 114.192 536.492C122.504 532.742 120.33 532.672 127.449 529.588C133.429 526.942 137.883 525.348 142.758 523.315C142.884 523.262 143.003 523.191 143.109 523.105C143.523 522.795 143.798 522.333 143.874 521.821C143.949 521.309 143.819 520.788 143.512 520.371L136.323 510.541C136.164 510.321 135.935 510.162 135.672 510.092C135.41 510.022 135.132 510.044 134.885 510.156L123.241 515.167C122.181 515.6 121.314 516.404 120.803 517.428Z" fill="#292929"/>
<path d="M66.1272 372.92C68.3893 400.956 108.686 493.632 108.686 493.632L132.605 486.974C132.605 486.974 114.333 397.942 102.409 383.205C102.409 383.205 106.301 383.205 112.562 383.328C134.359 383.521 184.879 383.486 199.451 379.613C209.85 376.845 231.577 371.29 225.755 336.525L198.82 335.597L167.449 334.51C167.449 334.51 62.9357 334.686 66.1272 372.92Z" fill="#292929"/>
<path opacity="0.2" d="M112.562 383.328C134.359 383.521 184.879 383.486 199.451 379.613C209.85 376.845 231.577 371.29 225.755 336.525L198.82 335.597C177.619 338.102 149.913 342.29 131.027 350.403C121.838 354.346 115.455 361.46 113.579 369.836C112.933 374.305 112.593 378.813 112.562 383.328Z" fill="#292929"/>
<path d="M147.44 473.464L156.314 517.743L169.658 517.13L168.08 472.851L147.44 473.464Z" fill="#FEBAA5"/>
<path opacity="0.2" d="M147.44 473.464L168.079 472.851L168.991 499.327L152.736 499.905L147.44 473.464Z" fill="#292929"/>
<path d="M154.279 518.795C152.105 524.051 150.772 528.467 141.426 534.319C139.427 535.616 143.074 540.96 148.107 538.472C156.454 534.39 154.227 534.407 161.399 531.025C167.449 528.169 171.92 526.399 176.813 524.174L177.181 523.999C177.389 523.838 177.563 523.637 177.692 523.408C177.822 523.18 177.904 522.928 177.935 522.667C177.966 522.406 177.945 522.141 177.873 521.889C177.8 521.636 177.679 521.4 177.514 521.195L169.886 511.365C169.722 511.147 169.487 510.992 169.221 510.928C168.956 510.864 168.676 510.895 168.431 511.015L156.752 516.464C155.666 516.907 154.785 517.738 154.279 518.795Z" fill="#292929"/>
<path d="M241.501 336.438C241.501 336.438 249.129 363.825 236.521 374.637C218.898 389.759 155.226 385.15 155.226 385.15C166.221 420.318 171.131 490.18 171.131 490.18H147.265C147.265 490.18 114.753 394.612 119.558 369.906C124.363 345.199 209.657 336.455 209.657 336.455L241.501 336.438Z" fill="#292929"/>
<path d="M134.727 489.742L107.651 496.558L102.128 484.976L131.868 476.548L134.727 489.742Z" fill="#E2BC82"/>
<path d="M173.498 493.58L145.879 494.999L143.021 482.856L173.498 481.437V493.58Z" fill="#E2BC82"/>
<path d="M160.838 298.572C153.824 277.913 145.056 262.195 144.039 244.585C168.045 209.96 214.988 230.427 214.988 230.427C243.396 283.695 241.502 336.438 241.502 336.438C176.953 336.438 173.253 335.334 173.253 335.334C173.253 335.334 173.025 326.275 160.838 298.572Z" fill="#E2BC82"/>
<path opacity="0.2" d="M182.512 229.41C181.477 235.508 179.32 246.512 176.76 248.107C173.253 250.245 167.992 247.248 167.992 247.248C167.992 247.248 163.731 253.013 159.224 249.176C156.694 246.754 154.72 243.813 153.437 240.555C154.764 242.812 156.439 244.847 158.4 246.582C162.959 250.402 167.168 244.655 167.168 244.655C167.168 244.655 172.429 247.634 175.936 245.514C178.251 244.129 180.951 235.421 182.512 229.41Z" fill="#292929"/>
<path d="M176.725 221L170.324 223.19L175.339 227.588L176.725 221Z" fill="#E2BC82"/>
<path opacity="0.2" d="M176.725 221L170.324 223.19L175.339 227.588L176.725 221Z" fill="#292929"/>
<path d="M156.383 227.588L154.63 232.845C154.63 232.845 163.783 242.412 166.414 242.517C169.044 242.622 176.76 224.522 176.76 224.522C166.572 219.913 167.518 214.849 167.518 214.849L156.383 227.588Z" fill="#FEBAA5"/>
<path opacity="0.2" d="M159.715 237.734C157.015 235.263 154.595 232.757 154.595 232.757L156.349 227.5L166.256 216.058C167.554 221.122 168.816 231.531 159.715 237.734Z" fill="#292929"/>
<path d="M151.157 236.56C152.806 240.415 155.243 243.882 158.312 246.74C162.889 250.56 167.08 244.83 167.08 244.83C167.08 244.83 172.341 247.791 175.848 245.671C179.355 243.551 183.932 224.101 183.932 224.101L176.724 221L166.799 242.027L153.42 230.97L151.157 236.56Z" fill="#E2BC82"/>
<path d="M167.869 197.081C167.884 193.97 167.079 190.91 165.535 188.208C163.992 185.506 161.764 183.257 159.075 181.688C156.387 180.118 153.333 179.283 150.219 179.266C147.106 179.249 144.043 180.051 141.337 181.591C128.606 188.443 128.256 208.453 132.044 220.141C132.959 223.211 134.699 225.972 137.074 228.123C139.45 230.274 142.37 231.733 145.517 232.341C148.664 232.95 151.918 232.685 154.925 231.575C157.933 230.465 160.578 228.553 162.573 226.046C168.816 218.371 168.009 210.504 167.834 196.994L167.869 197.081Z" fill="#FEBAA5"/>
<path d="M144.162 205.457C143.425 205.457 142.969 206.526 143.162 207.595C143.355 208.664 144.004 209.347 144.723 209.347C145.442 209.347 145.898 208.278 145.722 207.209C145.547 206.141 144.898 205.405 144.162 205.457Z" fill="#292929"/>
<path d="M132.009 207.735C131.255 207.735 130.799 208.769 130.974 209.855C131.15 210.942 131.834 211.608 132.57 211.608C133.307 211.608 133.727 210.556 133.57 209.47C133.412 208.383 132.745 207.647 132.009 207.735Z" fill="#292929"/>
<path d="M147.423 202.899C146.795 202.414 146.059 202.086 145.279 201.943C144.498 201.8 143.694 201.845 142.934 202.075C142.778 202.126 142.609 202.114 142.461 202.042C142.314 201.97 142.201 201.844 142.145 201.69C142.097 201.529 142.11 201.356 142.181 201.205C142.252 201.053 142.376 200.932 142.531 200.866C143.509 200.573 144.543 200.522 145.545 200.717C146.547 200.913 147.487 201.349 148.282 201.988C148.375 202.049 148.447 202.135 148.49 202.237C148.533 202.339 148.545 202.451 148.524 202.56C148.504 202.669 148.451 202.769 148.374 202.848C148.297 202.927 148.198 202.981 148.089 203.004C147.982 203.061 147.859 203.082 147.739 203.063C147.619 203.044 147.508 202.986 147.423 202.899Z" fill="#292929"/>
<path d="M128.941 206.316C128.799 206.225 128.697 206.084 128.658 205.92C128.619 205.757 128.645 205.584 128.73 205.44C129.228 204.543 129.931 203.775 130.781 203.2C131.631 202.625 132.604 202.258 133.623 202.128C133.758 202.132 133.888 202.181 133.992 202.266C134.097 202.352 134.17 202.469 134.201 202.601C134.222 202.683 134.226 202.768 134.214 202.851C134.201 202.935 134.172 203.015 134.127 203.086C134.083 203.158 134.025 203.221 133.957 203.27C133.888 203.319 133.81 203.353 133.728 203.372C132.905 203.497 132.123 203.811 131.441 204.288C130.76 204.765 130.198 205.393 129.8 206.123C129.753 206.215 129.683 206.294 129.597 206.353C129.511 206.411 129.412 206.446 129.309 206.456C129.175 206.445 129.047 206.397 128.941 206.316Z" fill="#292929"/>
<path d="M139.216 219.685C138.39 220.061 137.493 220.256 136.585 220.256C135.678 220.256 134.781 220.061 133.955 219.685C135.565 216.417 136.743 212.954 137.462 209.382L139.216 219.685Z" fill="#FFA184"/>
<path d="M168.711 205.825C173.971 186.726 165.467 181.749 156.278 178.315C147.089 174.88 141.986 178.175 139.058 181.399C138.146 182.415 136.322 185.464 142.214 185.867C145.782 186.005 149.354 185.728 152.858 185.043C153.559 184.921 154.28 184.994 154.941 185.253C155.603 185.513 156.181 185.95 156.611 186.515C158.645 189.179 161.872 194.155 161.872 198.501C161.749 200.154 161.99 201.813 162.578 203.363C163.166 204.913 164.086 206.316 165.274 207.472L168.711 205.825Z" fill="#292929"/>
<path d="M175.34 301.813C174.882 301.817 174.435 301.956 174.057 302.213C173.678 302.47 173.384 302.833 173.212 303.257C173.04 303.681 172.998 304.147 173.09 304.595C173.183 305.043 173.407 305.453 173.733 305.774C174.059 306.095 174.473 306.312 174.923 306.398C175.372 306.484 175.838 306.435 176.259 306.256C176.681 306.078 177.04 305.779 177.291 305.397C177.543 305.014 177.675 304.566 177.672 304.109C177.672 303.803 177.611 303.5 177.492 303.218C177.373 302.936 177.199 302.681 176.981 302.467C176.762 302.253 176.502 302.085 176.217 301.973C175.932 301.861 175.628 301.806 175.322 301.813H175.34Z" fill="#E2BC82"/>
<path d="M180.425 326.275C180.121 326.275 179.82 326.335 179.539 326.451C179.258 326.567 179.003 326.737 178.788 326.952C178.573 327.167 178.402 327.422 178.286 327.703C178.17 327.983 178.11 328.284 178.11 328.588C178.11 328.891 178.17 329.192 178.286 329.473C178.402 329.753 178.573 330.008 178.788 330.223C179.003 330.438 179.258 330.608 179.539 330.725C179.82 330.841 180.121 330.901 180.425 330.901C181.04 330.896 181.629 330.648 182.062 330.212C182.496 329.775 182.739 329.185 182.739 328.57C182.739 328.267 182.679 327.967 182.563 327.688C182.446 327.408 182.275 327.154 182.06 326.941C181.845 326.727 181.59 326.559 181.309 326.444C181.028 326.33 180.728 326.272 180.425 326.275Z" fill="#E2BC82"/>
<path d="M168.571 201.515C164.853 202.18 163.065 207.42 163.03 210.854C162.994 214.288 165.66 217.32 168.939 215.13C171.428 213.412 173.18 210.823 173.849 207.875C174.568 204.178 172.271 200.779 168.571 201.515Z" fill="#FEBAA5"/>
<path d="M151.596 219.493C147.567 220.629 143.657 222.149 139.918 224.031C141.071 225.265 142.614 226.064 144.288 226.294C145.961 226.523 147.663 226.17 149.106 225.293C149.666 225.095 150.178 224.784 150.611 224.378C151.044 223.973 151.389 223.482 151.623 222.938C151.857 222.393 151.975 221.805 151.971 221.212C151.966 220.619 151.839 220.034 151.596 219.493Z" fill="#292929"/>
<path d="M146.213 224.294C147.824 223.435 149.666 223.11 151.474 223.365C150.919 224.254 150.105 224.951 149.141 225.363C147.532 226.225 145.689 226.551 143.881 226.291C144.421 225.391 145.24 224.69 146.213 224.294Z" fill="#A02724"/>
<path d="M151.175 219.598C151.236 219.943 151.2 220.298 151.07 220.623C150.94 220.948 150.721 221.23 150.439 221.438C147.957 222.585 145.382 223.517 142.74 224.224C142.335 224.376 141.897 224.424 141.468 224.363C141.039 224.302 140.632 224.133 140.285 223.873C143.799 222.168 147.44 220.738 151.175 219.598Z" fill="white"/>
<path d="M137.747 348.143L106.008 348.314L105.98 343.215L137.719 343.044L137.747 348.143Z" fill="#292929"/>
<path d="M135.136 348.163L175.467 347.945C175.78 347.944 176.09 347.88 176.379 347.759C176.668 347.638 176.93 347.461 177.15 347.238C177.37 347.016 177.544 346.752 177.663 346.462C177.781 346.172 177.841 345.862 177.839 345.549L177.825 342.851L135.108 343.082L135.136 348.181L135.136 348.163Z" fill="#292929"/>
<path opacity="0.3" d="M135.136 348.163L175.467 347.945C175.78 347.944 176.09 347.88 176.379 347.759C176.668 347.638 176.93 347.461 177.15 347.238C177.37 347.016 177.544 346.752 177.663 346.462C177.781 346.172 177.841 345.862 177.839 345.549L177.825 342.851L135.108 343.082L135.136 348.181L135.136 348.163Z" fill="white"/>
<path d="M146.629 346.46L141.526 346.487L141.517 344.682L146.619 344.654L146.629 346.46Z" fill="#292929"/>
<path d="M154.591 346.45L149.488 346.478L149.479 344.672L154.581 344.645L154.591 346.45Z" fill="#292929"/>
<path d="M129.08 343.131L132.465 343.114L118.962 297.17L115.578 297.187L129.08 343.131Z" fill="#292929"/>
<path opacity="0.3" d="M129.08 343.131L132.465 343.114L118.962 297.17L115.578 297.187L129.08 343.131Z" fill="white"/>
<path d="M130.325 343.131L70.7564 343.447L57.2539 297.485L116.823 297.17L130.325 343.131Z" fill="#292929"/>
<path opacity="0.6" d="M130.325 343.131L70.7564 343.447L57.2539 297.485L116.823 297.17L130.325 343.131Z" fill="white"/>
<path d="M133.236 343.114L71.2298 343.447C70.1952 343.447 69.3535 344.603 69.3535 346.005C69.3535 347.407 70.2127 348.546 71.2649 348.546L133.271 348.213C134.306 348.213 135.147 347.056 135.147 345.655C135.147 344.253 134.288 343.114 133.236 343.114Z" fill="#292929"/>
<path opacity="0.5" d="M133.236 343.114L71.2298 343.447C70.1952 343.447 69.3535 344.603 69.3535 346.005C69.3535 347.407 70.2127 348.546 71.2649 348.546L133.271 348.213C134.306 348.213 135.147 347.056 135.147 345.655C135.147 344.253 134.288 343.114 133.236 343.114Z" fill="white"/>
<path d="M135.147 345.655C135.147 347.056 134.306 348.195 133.271 348.213C132.237 348.23 131.377 347.074 131.36 345.672C131.342 344.27 132.201 343.114 133.236 343.114C134.271 343.114 135.13 344.253 135.147 345.655Z" fill="#292929"/>
<path opacity="0.3" d="M135.147 345.655C135.147 347.056 134.306 348.195 133.271 348.213C132.237 348.23 131.377 347.074 131.36 345.672C131.342 344.27 132.201 343.114 133.236 343.114C134.271 343.114 135.13 344.253 135.147 345.655Z" fill="white"/>
<path opacity="0.2" d="M193.699 300.569C196.558 296.644 199.591 282.101 201.713 270.08L198.96 269.554L199.609 264.578L201.047 264.841C202.046 255.449 205.939 227.203 216.478 233.3C219.547 239.258 222.248 245.251 224.597 251.173C224.806 257.094 224.3 263.019 223.089 268.818L224.843 269.134L223.23 274.163L219.494 273.462C217.267 285.062 214.023 299.746 211.007 305.563C207.044 313.203 189.964 325.959 178.531 332.162C165.677 329.884 162.749 328.272 162.749 328.272C163.116 327.789 163.417 327.259 163.643 326.695L165.712 326.993C165.712 326.993 188.596 307.596 193.699 300.569Z" fill="#292929"/>
<path d="M196.839 252.996C196.839 252.996 193.086 293.946 188.316 301.2C183.547 308.454 161.574 328.956 161.574 328.956L147.02 327.519L137.761 337.139L145.003 341.695L152.578 337.857C156.963 338.146 161.364 338.046 165.73 337.559C173.078 336.753 201.012 315.936 205.852 305.423C210.692 294.909 214.918 256.938 214.918 256.938L196.839 252.996Z" fill="#FEBAA5"/>
<path d="M193.577 261.827L195.032 262.09C196.032 252.523 200.047 223.435 211.007 230.9C221.529 238.084 218.6 258.48 217.057 266.103L218.811 266.418L217.197 271.447L192.928 266.803L193.577 261.827Z" fill="#E2BC82"/>
<path d="M548.289 402.252L552.48 402.025L551.498 383.03C551.097 376.734 548.329 370.822 543.751 366.478C539.173 362.134 533.121 359.678 526.808 359.603C523.747 359.572 520.712 360.173 517.894 361.367C515.076 362.562 512.534 364.324 510.428 366.544C508.321 368.763 506.696 371.393 505.652 374.269C504.608 377.145 504.169 380.205 504.362 383.258L505.362 402.252L509.553 402.025L508.554 383.03C508.386 380.543 508.736 378.049 509.581 375.703C510.425 373.358 511.746 371.213 513.461 369.402C515.175 367.592 517.246 366.156 519.543 365.184C521.84 364.212 524.314 363.726 526.808 363.755C532.05 363.82 537.074 365.863 540.872 369.473C544.67 373.083 546.963 377.995 547.29 383.223L548.289 402.252Z" fill="#292929"/>
<path d="M458.384 393.806H582.309L586.518 540.733L568.14 536.527L549.763 540.733H454.176L458.384 393.806Z" fill="#E2BC82"/>
<path opacity="0.6" d="M458.384 393.806H582.309L586.518 540.733L568.14 536.527L549.763 540.733H454.176L458.384 393.806Z" fill="white"/>
<path d="M549.763 540.733L568.14 536.527L586.518 540.733L582.309 393.806H553.954L549.763 540.733Z" fill="#E2BC82"/>
<path opacity="0.3" d="M549.763 540.733L568.14 536.527L586.518 540.733L582.309 393.806H553.954L549.763 540.733Z" fill="white"/>
<path d="M484.617 402.252L485.547 383.258C485.874 378.027 488.169 373.113 491.971 369.502C495.773 365.891 500.801 363.851 506.046 363.791C508.539 363.763 511.01 364.251 513.305 365.224C515.6 366.197 517.669 367.634 519.382 369.444C521.094 371.254 522.414 373.398 523.257 375.743C524.101 378.087 524.45 380.58 524.283 383.065L523.284 402.06L527.475 402.287L528.474 383.293C528.67 380.241 528.233 377.181 527.191 374.306C526.15 371.43 524.526 368.8 522.421 366.58C520.316 364.359 517.775 362.597 514.958 361.403C512.14 360.208 509.106 359.607 506.046 359.638C499.732 359.709 493.678 362.164 489.099 366.509C484.519 370.853 481.753 376.768 481.356 383.065L480.356 402.06L484.617 402.252Z" fill="#292929"/>
<g opacity="0.2">
<path opacity="0.2" d="M484.617 402.252L485.547 383.258C485.874 378.027 488.169 373.113 491.971 369.502C495.773 365.891 500.801 363.851 506.046 363.791C508.539 363.763 511.01 364.251 513.305 365.224C515.6 366.197 517.669 367.634 519.382 369.444C521.094 371.254 522.414 373.398 523.257 375.743C524.101 378.087 524.45 380.58 524.283 383.065L523.284 402.06L527.475 402.287L528.474 383.293C528.67 380.241 528.233 377.181 527.191 374.306C526.15 371.43 524.526 368.8 522.421 366.58C520.316 364.359 517.775 362.597 514.958 361.403C512.14 360.208 509.106 359.607 506.046 359.638C499.732 359.709 493.678 362.164 489.099 366.509C484.519 370.853 481.753 376.768 481.356 383.065L480.356 402.06L484.617 402.252Z" fill="white"/>
</g>
<path d="M475.13 447.46H532.753C534.051 447.46 535.103 448.512 535.103 449.808V459.113C535.103 460.41 534.051 461.461 532.753 461.461H475.13C473.833 461.461 472.781 460.41 472.781 459.113V449.808C472.781 448.512 473.833 447.46 475.13 447.46Z" fill="white"/>
<path d="M605.245 447.898L608.068 447.741L607.402 435.019C607.15 430.786 605.302 426.806 602.23 423.88C599.159 420.954 595.092 419.299 590.848 419.249C588.804 419.229 586.777 419.629 584.894 420.424C583.01 421.219 581.31 422.392 579.9 423.871C578.489 425.349 577.397 427.102 576.692 429.02C575.988 430.938 575.685 432.98 575.803 435.019L576.469 447.758L579.275 447.601L578.608 434.879C578.502 433.211 578.742 431.539 579.312 429.969C579.883 428.398 580.773 426.962 581.926 425.751C583.078 424.54 584.469 423.58 586.01 422.931C587.552 422.283 589.211 421.96 590.883 421.983C594.396 422.024 597.762 423.391 600.309 425.809C602.855 428.226 604.393 431.516 604.614 435.019L605.245 447.898Z" fill="#292929"/>
<path d="M544.975 442.239H628.06L630.865 540.733L618.555 537.912L606.228 540.733H542.152L544.975 442.239Z" fill="#E2BC82"/>
<path d="M606.228 540.733L618.555 537.912L630.865 540.733L628.06 442.239H609.051L606.228 540.733Z" fill="#E2BC82"/>
<path opacity="0.2" d="M606.228 540.733L618.555 537.912L630.865 540.733L628.06 442.239H609.051L606.228 540.733Z" fill="#292929"/>
<path d="M562.563 447.898L563.23 435.16C563.475 431.662 565.022 428.384 567.567 425.97C570.112 423.557 573.47 422.184 576.978 422.123C578.651 422.095 580.313 422.414 581.857 423.061C583.401 423.707 584.794 424.667 585.947 425.879C587.101 427.091 587.991 428.53 588.56 430.103C589.128 431.676 589.364 433.35 589.253 435.019L588.586 447.741L591.392 447.898L592.076 435.16C592.191 433.121 591.886 431.08 591.181 429.163C590.475 427.246 589.383 425.495 587.973 424.017C586.563 422.538 584.864 421.365 582.982 420.569C581.1 419.773 579.074 419.372 577.03 419.389C572.787 419.439 568.72 421.094 565.648 424.02C562.577 426.946 560.729 430.927 560.476 435.16L559.81 447.881L562.563 447.898Z" fill="#292929"/>
<g opacity="0.2">
<path opacity="0.2" d="M562.563 447.898L563.23 435.16C563.475 431.662 565.022 428.384 567.567 425.97C570.112 423.557 573.47 422.184 576.978 422.123C578.651 422.095 580.313 422.414 581.857 423.061C583.401 423.707 584.794 424.667 585.947 425.879C587.101 427.091 587.991 428.53 588.56 430.103C589.128 431.676 589.364 433.35 589.253 435.019L588.586 447.741L591.392 447.898L592.076 435.16C592.191 433.121 591.886 431.08 591.181 429.163C590.475 427.246 589.383 425.495 587.973 424.017C586.563 422.538 584.864 421.365 582.982 420.569C581.1 419.773 579.074 419.372 577.03 419.389C572.787 419.439 568.72 421.094 565.648 424.02C562.577 426.946 560.729 430.927 560.476 435.16L559.81 447.881L562.563 447.898Z" fill="white"/>
</g>
<path d="M556.987 478.212H594.057C595.355 478.212 596.407 479.264 596.407 480.56V485.239C596.407 486.536 595.355 487.587 594.057 487.587H556.987C555.689 487.587 554.637 486.536 554.637 485.239V480.56C554.637 479.264 555.689 478.212 556.987 478.212Z" fill="white"/>
<path d="M477.34 531.113L490.685 529.728L490.018 498.573L476.674 499.958L477.34 531.113Z" fill="#FEBAA5"/>
<path d="M364.444 486.43L376.386 492.511L394.343 466.788L382.383 460.707L364.444 486.43Z" fill="#FEBAA5"/>
<path d="M378.876 490.846L366.601 482.085C366.392 481.932 366.135 481.86 365.877 481.883C365.619 481.905 365.378 482.021 365.198 482.207L356.887 490.969C356.685 491.194 356.532 491.46 356.44 491.748C356.347 492.036 356.317 492.341 356.35 492.641C356.383 492.942 356.479 493.233 356.632 493.494C356.785 493.755 356.991 493.981 357.237 494.158C361.569 497.137 363.813 498.346 369.214 502.201C372.528 504.566 377.14 508.369 381.717 511.628C386.294 514.887 389.784 510.541 388.17 508.772C380.928 500.834 381.384 497.329 380.227 492.861C380.031 492.05 379.552 491.336 378.876 490.846Z" fill="#292929"/>
<path d="M491.824 528.046L476.831 529.606C476.574 529.627 476.333 529.743 476.155 529.93C475.977 530.118 475.874 530.364 475.867 530.622L475.393 542.66C475.392 542.963 475.454 543.263 475.576 543.541C475.699 543.819 475.878 544.067 476.103 544.271C476.328 544.474 476.594 544.628 476.883 544.722C477.171 544.815 477.476 544.847 477.778 544.815C483.039 544.167 485.476 543.606 492.07 542.923C496.138 542.485 507.852 541.696 513.428 541.171C519.005 540.645 518.689 535.02 516.357 534.757C505.677 533.601 497.962 531.253 494.139 528.677C493.466 528.201 492.646 527.978 491.824 528.046Z" fill="#292929"/>
<g opacity="0.2">
<path opacity="0.2" d="M490.017 498.573L490.368 514.642L477.006 516.026L476.673 499.975L490.017 498.573Z" fill="#292929"/>
<path opacity="0.2" d="M382.383 460.725L394.343 466.805L385.084 480.052L373.125 473.972L382.383 460.725Z" fill="#292929"/>
</g>
<path d="M483.635 229.428C483.635 229.428 497.471 332.337 497.821 373.235C498.242 415.78 492.841 511.277 492.841 511.277L474.797 513.152C474.797 513.152 467.467 419.232 464.556 377.546C461.365 332.075 443.689 230.707 443.689 230.707L483.635 229.428Z" fill="#292929"/>
<path d="M473.359 513.941L494.542 511.733L495.384 504.829L471.588 506.476L473.359 513.941Z" fill="#E2BC82"/>
<path opacity="0.6" d="M460.996 255.834C475.235 282.311 466.082 331.707 461.926 350.105C458.646 322.77 453.491 289.39 449.528 264.893C451.071 250.91 454.385 243.656 460.996 255.834Z" fill="#292929"/>
<path d="M469.256 229.883C469.256 229.883 460.295 337.594 452.071 372.341C442.303 413.607 389.381 478.756 389.381 478.756L373.072 470.467C373.072 470.467 408.933 398.064 416.701 376.231C433.308 329.674 415.684 261.617 429.169 231.145L469.256 229.883Z" fill="#292929"/>
<path d="M370.757 470.362L390.994 480.648L396.377 475.391L373.125 462.214L370.757 470.362Z" fill="#E2BC82"/>
<path d="M383.594 496.348H383.751C384.059 496.31 384.351 496.191 384.597 496.003C384.844 495.815 385.036 495.565 385.154 495.279C385.251 495.115 385.303 494.927 385.303 494.736C385.303 494.545 385.251 494.357 385.154 494.193C384.295 492.703 379.455 492.441 378.912 492.441C378.848 492.439 378.786 492.457 378.733 492.491C378.68 492.525 378.638 492.575 378.613 492.633C378.575 492.68 378.554 492.739 378.554 492.8C378.554 492.86 378.575 492.919 378.613 492.966C379.788 494.28 381.91 496.401 383.594 496.348ZM379.648 493.124C381.577 493.264 384.155 493.72 384.611 494.491C384.654 494.565 384.676 494.65 384.676 494.736C384.676 494.822 384.654 494.907 384.611 494.981C384.533 495.172 384.405 495.339 384.242 495.465C384.079 495.591 383.886 495.672 383.681 495.7C382.769 495.893 381.279 494.859 379.648 493.124Z" fill="#E2BC82"/>
<path d="M379.35 493.089C381.016 493.089 384.05 492.16 384.611 490.881C384.714 490.651 384.733 490.392 384.666 490.149C384.599 489.906 384.449 489.694 384.243 489.549C384.068 489.381 383.857 489.254 383.626 489.178C383.396 489.102 383.151 489.079 382.91 489.111C380.963 489.322 378.719 492.441 378.614 492.616C378.587 492.664 378.574 492.718 378.574 492.774C378.574 492.829 378.587 492.883 378.614 492.931C378.638 492.981 378.675 493.023 378.722 493.054C378.768 493.085 378.821 493.103 378.877 493.106C379.035 493.118 379.193 493.112 379.35 493.089ZM383.085 489.742C383.222 489.731 383.36 489.748 383.49 489.793C383.62 489.839 383.739 489.911 383.839 490.005C384.137 490.285 384.102 490.478 384.05 490.618C383.664 491.477 381.156 492.371 379.525 492.458C380.332 491.459 381.84 489.865 383.033 489.742H383.085Z" fill="#E2BC82"/>
<path d="M497.067 529.851C498.221 529.837 499.334 529.429 500.224 528.695C500.419 528.484 500.56 528.228 500.633 527.95C500.707 527.672 500.711 527.38 500.644 527.1C500.614 526.926 500.54 526.763 500.43 526.625C500.319 526.487 500.176 526.38 500.013 526.312C498.26 525.593 493.244 528.852 492.683 529.238C492.627 529.27 492.582 529.321 492.557 529.381C492.531 529.441 492.527 529.508 492.543 529.571C492.558 529.636 492.593 529.695 492.643 529.739C492.694 529.783 492.757 529.81 492.823 529.816C494.234 529.961 495.655 529.973 497.067 529.851ZM499.171 526.837C499.368 526.799 499.571 526.799 499.768 526.837C499.834 526.867 499.891 526.913 499.934 526.972C499.977 527.03 500.004 527.098 500.013 527.17C500.062 527.351 500.063 527.541 500.017 527.722C499.971 527.903 499.879 528.069 499.75 528.204C499.014 529.028 496.839 529.378 493.823 529.203C495.463 528.124 497.27 527.325 499.171 526.837Z" fill="#E2BC82"/>
<path d="M492.894 529.816C492.894 529.816 492.982 529.816 493.017 529.816C494.525 528.94 497.383 525.733 496.98 524.244C496.875 523.893 496.577 523.473 495.7 523.473C495.372 523.466 495.047 523.527 494.745 523.654C494.442 523.781 494.17 523.97 493.946 524.209C492.421 525.786 492.473 529.466 492.491 529.553C492.489 529.608 492.503 529.661 492.531 529.708C492.559 529.755 492.6 529.792 492.649 529.816C492.728 529.846 492.815 529.846 492.894 529.816ZM495.507 524.069H495.7C496.279 524.069 496.331 524.279 496.366 524.367C496.594 525.26 494.7 527.731 493.175 528.887C493.154 527.359 493.6 525.862 494.455 524.594C494.735 524.303 495.106 524.118 495.507 524.069Z" fill="#E2BC82"/>
<path d="M489.387 174.723C494.353 181.351 499.917 187.51 506.01 193.121C509.234 196.144 512.759 198.827 516.532 201.129C518.755 202.491 521.149 203.552 523.651 204.283C525.235 204.74 526.878 204.965 528.526 204.949C529.511 204.938 530.493 204.827 531.455 204.616C531.946 204.493 532.472 204.336 532.963 204.16C533.539 203.959 534.097 203.707 534.629 203.407C535.869 202.738 536.951 201.812 537.803 200.691C538.456 199.862 538.993 198.949 539.399 197.975C539.999 196.564 540.406 195.079 540.608 193.559C540.917 191.207 541.005 188.831 540.872 186.463C540.579 182.274 539.993 178.111 539.118 174.004C537.512 166.084 535.32 158.295 532.56 150.699L525.3 152.574C526.334 160.196 527.299 167.976 527.878 175.511C528.195 179.164 528.289 182.833 528.158 186.498C528.124 188.061 527.93 189.617 527.579 191.141C527.494 191.564 527.346 191.971 527.141 192.35C527.036 192.525 527.141 191.982 528.158 191.334C528.526 191.159 528.404 191.176 528.491 191.159C528.186 191.089 527.887 190.996 527.597 190.878C526.36 190.374 525.184 189.734 524.09 188.968C521.28 186.964 518.635 184.737 516.181 182.31C513.568 179.769 511.061 177.053 508.588 174.197C506.116 171.341 503.643 168.432 501.381 165.646L489.387 174.723Z" fill="#FEBAA5"/>
<path d="M492.315 155.43C497.804 153.923 514.095 174.705 514.095 174.705L498.523 192.07C498.523 192.07 480.268 175.599 480.987 168.222C481.671 160.512 484.284 157.708 492.315 155.43Z" fill="#E2BC82"/>
<path d="M525.107 150.699L525.721 139.783L536.242 148.439C536.242 148.439 534.646 156.902 529.333 158.584L526.054 153.976C525.383 153.019 525.049 151.866 525.107 150.699Z" fill="#FEBAA5"/>
<path d="M532.577 130.776L540.994 138.521L536.26 148.404L525.721 139.748L532.577 130.776Z" fill="#FEBAA5"/>
<path d="M536.856 151.891L539.293 151.015C539.951 150.767 540.502 150.297 540.848 149.685C541.194 149.073 541.314 148.359 541.187 147.668L537.487 128.008L530.841 130.426L532.892 149.42C532.936 149.869 533.083 150.302 533.321 150.685C533.559 151.069 533.882 151.392 534.265 151.631C534.648 151.87 535.081 152.017 535.53 152.062C535.979 152.107 536.433 152.049 536.856 151.891Z" fill="#292929"/>
<path d="M519.338 126.921C518.917 125.782 518.514 124.661 518.145 123.539C519.643 121.128 521.647 119.071 524.02 117.512C524.897 119.667 525.773 121.927 526.633 124.258C527.492 126.588 528.263 128.884 528.965 131.109C526.143 131.436 523.283 131.149 520.583 130.268C520.162 129.164 519.741 128.06 519.338 126.921Z" fill="#292929"/>
<path d="M523.739 125.327C522.703 122.597 521.957 119.766 521.512 116.881L543.309 108.943L549.236 125.222L527.422 133.177C525.926 130.695 524.692 128.064 523.739 125.327Z" fill="#E2BC82"/>
<path opacity="0.6" d="M523.739 125.327C522.703 122.597 521.957 119.766 521.512 116.881L543.309 108.943L549.236 125.222L527.422 133.177C525.926 130.695 524.692 128.064 523.739 125.327Z" fill="white"/>
<path d="M537.645 109.486C538.627 109.118 562.195 84.9549 564.825 83.9211C567.456 82.8872 573.821 92.4896 578.521 105.386C583.22 118.283 584.693 129.567 581.835 130.619C578.977 131.67 545.571 128.148 544.571 128.498C543.572 128.849 540.907 124.994 538.995 119.737C537.084 114.48 536.4 109.907 537.645 109.486Z" fill="#E2BC82"/>
<path opacity="0.4" d="M537.645 109.486C538.627 109.118 562.195 84.9549 564.825 83.9211C567.456 82.8872 573.821 92.4896 578.521 105.386C583.22 118.283 584.693 129.567 581.835 130.619C578.977 131.67 545.571 128.148 544.571 128.498C543.572 128.849 540.907 124.994 538.995 119.737C537.084 114.48 536.4 109.907 537.645 109.486Z" fill="white"/>
<path d="M568.139 109.153C572.839 122.05 578.977 131.652 581.835 130.619C584.693 129.585 583.22 118.353 578.521 105.386C573.821 92.4195 567.684 82.8873 564.825 83.9211C561.967 84.9549 563.44 96.2744 568.139 109.153Z" fill="#E2BC82"/>
<path d="M574.979 106.63C575.294 107.489 575.592 108.382 575.873 109.171C574.255 111.199 572.275 112.91 570.034 114.217C569.367 112.605 568.701 110.906 568.052 109.153C567.403 107.401 566.842 105.649 566.299 104.002C568.856 103.567 571.472 103.609 574.014 104.125C574.453 104.948 574.768 105.789 574.979 106.63Z" fill="#292929"/>
<path opacity="0.7" d="M574.979 106.63C575.294 107.489 575.592 108.382 575.873 109.171C574.255 111.199 572.275 112.91 570.034 114.217C569.367 112.605 568.701 110.906 568.052 109.153C567.403 107.401 566.842 105.649 566.299 104.002C568.856 103.567 571.472 103.609 574.014 104.125C574.453 104.948 574.768 105.789 574.979 106.63Z" fill="white"/>
<path opacity="0.2" d="M496.91 167.644C496.103 179.296 498.821 186.235 500.75 189.582L498.523 192.052C498.523 192.052 488.23 182.766 483.39 175.021C488.826 166.96 497.822 155.395 496.91 167.644Z" fill="#292929"/>
<path d="M435.604 101.373C428.292 101.373 422.365 95.4504 422.365 88.144C422.365 80.8375 428.292 74.9145 435.604 74.9145C442.916 74.9145 448.844 80.8375 448.844 88.144C448.844 95.4504 442.916 101.373 435.604 101.373Z" fill="#292929"/>
<path d="M437.025 94.1717C437.021 95.8186 437.507 97.4296 438.42 98.8006C439.333 100.172 440.633 101.241 442.154 101.874C443.676 102.506 445.351 102.674 446.968 102.355C448.585 102.035 450.071 101.244 451.238 100.081C452.404 98.9175 453.199 97.4345 453.522 95.8194C453.845 94.2044 453.681 92.53 453.051 91.0081C452.421 89.4863 451.354 88.1853 449.984 87.27C448.613 86.3546 447.002 85.866 445.354 85.866C443.148 85.866 441.032 86.7405 439.471 88.2977C437.909 89.8548 437.029 91.9673 437.025 94.1717Z" fill="#E2BC82"/>
<path d="M471.798 83.851C471.798 83.851 489.334 82.4141 489.334 112.553C489.334 133.194 479.304 142.744 467.011 135.805C467.011 135.805 439.901 133.58 436.779 108.786C433.658 83.9912 452.842 74.7568 471.798 83.851Z" fill="#292929"/>
<path d="M495.892 156.236C495.892 156.236 502.117 158.935 483.617 236.472L429.256 232.529C431.782 210.486 432.764 196.871 425.521 150.734C433.246 149.718 441.035 149.261 448.826 149.368C457.087 149.368 465.338 149.953 473.517 151.12C484.055 152.907 495.892 156.236 495.892 156.236Z" fill="#E2BC82"/>
<path d="M453.315 121.77C454.297 129.83 454.788 144.549 448.844 149.368C448.844 149.368 450.422 157.568 465.187 158.655C481.407 159.829 473.534 151.155 473.534 151.155C464.766 148.404 465.538 141.85 467.519 135.805L453.315 121.77Z" fill="#FEBAA5"/>
<path opacity="0.2" d="M459.102 127.5L467.52 135.805C467.034 137.208 466.67 138.65 466.432 140.116C463.083 139.38 458.717 135.332 458.611 131.775C458.512 130.332 458.679 128.883 459.102 127.5Z" fill="#292929"/>
<path d="M444.232 108.382C447.266 121.332 448.283 126.886 456.051 132.476C467.73 140.887 482.986 134.316 483.88 120.718C484.687 108.453 479.584 89.353 465.853 86.3216C462.833 85.6433 459.689 85.7475 456.721 86.6243C453.752 87.5011 451.057 89.1214 448.89 91.3314C446.724 93.5415 445.159 96.268 444.344 99.2522C443.529 102.236 443.49 105.379 444.232 108.382Z" fill="#FEBAA5"/>
<path d="M466.59 108.295C466.766 109.364 467.485 110.047 468.169 110.047C468.853 110.047 469.291 108.961 469.116 107.892C468.94 106.823 468.204 106.14 467.52 106.14C466.836 106.14 466.398 107.226 466.59 108.295Z" fill="#292929"/>
<path d="M478.637 106.245C478.83 107.296 479.531 107.997 480.233 107.997C480.934 107.997 481.355 106.928 481.162 105.859C480.969 104.79 480.268 104.107 479.566 104.107C478.865 104.107 478.532 105.141 478.637 106.245Z" fill="#292929"/>
<path d="M479.269 104.213L481.706 103.021C481.706 103.021 480.742 105.247 479.269 104.213Z" fill="#292929"/>
<path d="M474.394 108.785C475.757 111.059 477.427 113.134 479.356 114.953C478.877 115.431 478.299 115.799 477.663 116.032C477.028 116.265 476.349 116.357 475.674 116.303L474.394 108.785Z" fill="#FFA184"/>
<path d="M442.724 120.999C444.033 123.218 446.162 124.835 448.651 125.502C451.948 126.343 453.526 123.364 452.544 120.245C451.667 117.477 448.879 113.709 445.53 114.217C444.813 114.352 444.142 114.663 443.576 115.123C443.01 115.582 442.568 116.176 442.289 116.849C442.011 117.522 441.905 118.254 441.981 118.979C442.057 119.703 442.312 120.398 442.724 120.999Z" fill="#FEBAA5"/>
<path d="M461.329 106.665C461.464 106.663 461.595 106.618 461.702 106.536C461.81 106.454 461.888 106.339 461.925 106.21C462.785 103.406 466.379 102.215 466.415 102.197C466.494 102.171 466.567 102.129 466.631 102.074C466.694 102.019 466.746 101.952 466.783 101.877C466.821 101.803 466.843 101.721 466.849 101.638C466.855 101.554 466.844 101.47 466.818 101.391C466.791 101.312 466.749 101.238 466.695 101.175C466.64 101.112 466.573 101.06 466.498 101.023C466.423 100.985 466.342 100.963 466.258 100.957C466.175 100.951 466.091 100.962 466.011 100.988C464.842 101.382 463.769 102.017 462.862 102.854C461.956 103.69 461.236 104.708 460.75 105.842C460.726 105.921 460.718 106.005 460.726 106.087C460.734 106.17 460.758 106.25 460.797 106.323C460.836 106.397 460.889 106.461 460.954 106.514C461.018 106.567 461.092 106.606 461.171 106.63C461.221 106.652 461.275 106.663 461.329 106.665Z" fill="#292929"/>
<path d="M481.32 100.059C481.455 100.048 481.584 99.9952 481.687 99.9075C481.79 99.8198 481.864 99.7019 481.897 99.5704C481.93 99.4388 481.92 99.3003 481.87 99.1743C481.82 99.0483 481.732 98.9411 481.618 98.8678C480.755 98.3446 479.779 98.0366 478.772 97.9695C477.765 97.9024 476.756 98.0783 475.831 98.4823C475.756 98.5202 475.69 98.5726 475.635 98.6363C475.581 98.7 475.539 98.7738 475.513 98.8535C475.487 98.9332 475.477 99.0173 475.483 99.1009C475.49 99.1846 475.513 99.2661 475.551 99.3409C475.589 99.4157 475.641 99.4822 475.705 99.5368C475.769 99.5914 475.842 99.6328 475.922 99.6589C476.002 99.6849 476.086 99.695 476.17 99.6885C476.254 99.6821 476.335 99.6592 476.41 99.6212C477.145 99.3071 477.945 99.1749 478.741 99.2359C479.538 99.2969 480.309 99.5493 480.987 99.9717C481.089 100.027 481.203 100.058 481.32 100.059Z" fill="#292929"/>
<path d="M467.222 106.263L469.659 105.088C469.659 105.088 468.677 107.315 467.222 106.263Z" fill="#292929"/>
<path d="M474.622 119.614C470.162 118.688 465.622 118.195 461.067 118.142C462.102 121.209 464.171 123.767 469.309 123.96C469.947 124.048 470.597 124.003 471.218 123.829C471.838 123.654 472.416 123.354 472.914 122.946C473.413 122.538 473.822 122.031 474.116 121.458C474.41 120.885 474.582 120.257 474.622 119.614Z" fill="#292929"/>
<path d="M467.047 121.489C469.022 121.474 470.95 122.088 472.553 123.242C471.576 123.825 470.442 124.088 469.309 123.995C467.334 124.01 465.405 123.397 463.802 122.243C464.774 121.647 465.912 121.383 467.047 121.489Z" fill="#FFA184"/>
<path d="M474.166 119.509C474.047 119.873 473.83 120.198 473.54 120.448C473.249 120.699 472.896 120.865 472.518 120.929C469.567 120.772 466.635 120.373 463.75 119.737C463.281 119.68 462.835 119.505 462.451 119.229C462.068 118.954 461.761 118.586 461.558 118.16C465.789 118.282 470.005 118.733 474.166 119.509Z" fill="white"/>
<path d="M481.618 98.8678C477.627 97.1791 474.154 94.4646 471.553 91.0001C471.553 91.0001 471.553 100.322 467.747 99.6037C463.942 98.8853 469.659 90.9826 469.659 90.9826C469.659 90.9826 460.891 94.8726 457.892 102.477C454.894 110.082 451.474 118.388 444.723 116.32C437.972 114.253 439.462 92.6998 449.405 87.3204L463.434 84.7972L467.572 85.4105C469.721 85.7161 471.782 86.4682 473.622 87.6183C476.396 89.3183 478.577 91.8338 479.865 94.8201L481.618 98.8678Z" fill="#292929"/>
<path d="M448.879 99.9892C449.528 98.6224 452.632 98.7451 455.893 100.252C459.155 101.759 459.208 103.178 458.559 104.545C457.91 105.912 456.805 106.7 453.544 105.193C450.282 103.686 448.23 101.356 448.879 99.9892ZM456.402 103.494C456.858 102.512 456.77 101.514 454.491 100.427C452.211 99.3409 449.984 99.2708 449.528 100.252C449.072 101.233 450.528 102.898 452.807 103.967C455.087 105.036 455.929 104.528 456.402 103.546V103.494Z" fill="#E2BC82"/>
<path opacity="0.2" d="M431.536 168.712L435.657 165.208L438.708 166.592C439.768 177.378 437.02 188.194 430.94 197.169C430.677 191.334 430.133 184.763 429.186 176.913C430.484 172.182 431.536 168.712 431.536 168.712Z" fill="#292929"/>
<path d="M375.984 211.415L378.211 211.643L379.263 201.602C379.58 198.263 378.621 194.927 376.578 192.265C374.535 189.603 371.56 187.812 368.25 187.251C366.65 186.981 365.011 187.044 363.436 187.435C361.861 187.825 360.384 188.536 359.096 189.523C357.807 190.509 356.736 191.75 355.949 193.168C355.162 194.586 354.675 196.151 354.52 197.765L353.45 207.805L355.677 208.05L356.729 197.993C356.858 196.677 357.254 195.402 357.893 194.245C358.533 193.088 359.401 192.073 360.447 191.264C361.495 190.459 362.697 189.878 363.979 189.559C365.262 189.239 366.596 189.187 367.9 189.406C370.647 189.872 373.116 191.359 374.811 193.57C376.506 195.78 377.301 198.55 377.036 201.322L375.984 211.415Z" fill="#292929"/>
<path d="M417.315 166.47C417 167.976 416.579 169.834 416.175 171.534C415.772 173.233 415.299 175.038 414.808 176.79C413.826 180.295 412.791 183.677 411.546 186.988C409.305 193.438 406.12 199.52 402.094 205.037L401.726 205.51L401.551 205.755L401.761 205.545C402.042 205.299 402.37 205.115 402.726 205.002C403.252 204.861 403.234 205.002 402.883 205.002C401.64 204.937 400.415 204.676 399.253 204.231C396.008 203.046 392.864 201.599 389.854 199.902C383.489 196.398 377.053 192.403 370.828 188.355L365.971 194.067C371.431 199.74 377.368 204.934 383.717 209.592C387.083 212.075 390.676 214.234 394.449 216.041C396.774 217.156 399.259 217.901 401.814 218.249C403.771 218.489 405.758 218.273 407.618 217.618C408.858 217.158 410 216.468 410.985 215.585C411.23 215.357 411.493 215.112 411.704 214.884L411.984 214.586L412.545 213.973C415.433 210.783 417.961 207.287 420.086 203.547C422.158 199.974 423.969 196.255 425.504 192.42C427.013 188.63 428.324 184.764 429.432 180.838C429.976 178.911 430.485 176.966 430.94 175.003C431.396 173.04 431.817 171.131 432.168 168.888L417.315 166.47Z" fill="#FEBAA5"/>
<path d="M425.539 150.699C419.98 151.961 410.248 172.042 410.248 172.042L432.098 186.848C432.098 186.848 440.865 171.761 439.112 164.56C437.323 157.095 431.887 149.298 425.539 150.699Z" fill="#E2BC82"/>
<path d="M371.74 188.268L359.044 181.259L361.709 194.628C361.709 194.628 369.916 197.239 373.984 193.349L371.74 188.268Z" fill="#FEBAA5"/>
<path d="M347.908 183.063L350.749 194.155L361.709 194.646L359.044 181.276L347.908 183.063Z" fill="#FEBAA5"/>
<path d="M342.578 206.123L344.682 196.24C345.286 193.523 346.896 191.135 349.189 189.556C351.482 187.976 354.289 187.322 357.045 187.724C358.355 187.916 359.611 188.377 360.734 189.077C361.858 189.776 362.824 190.701 363.574 191.792C364.323 192.882 364.838 194.116 365.088 195.415C365.337 196.715 365.315 198.051 365.023 199.342L362.919 209.224L365.094 209.698L367.198 199.815C367.556 198.229 367.582 196.587 367.275 194.99C366.968 193.394 366.335 191.878 365.415 190.537C364.495 189.197 363.308 188.06 361.928 187.199C360.548 186.339 359.005 185.772 357.395 185.534C354.075 185.047 350.693 185.832 347.928 187.734C345.163 189.635 343.22 192.511 342.49 195.785L340.386 205.667L342.578 206.123Z" fill="#292929"/>
<g opacity="0.3">
<path opacity="0.3" d="M342.578 206.123L344.682 196.24C345.286 193.523 346.896 191.135 349.189 189.556C351.482 187.976 354.289 187.322 357.045 187.724C358.355 187.916 359.611 188.377 360.734 189.077C361.858 189.776 362.824 190.701 363.574 191.792C364.323 192.882 364.838 194.116 365.088 195.415C365.337 196.715 365.315 198.051 365.023 199.342L362.919 209.224L365.094 209.698L367.198 199.815C367.556 198.229 367.582 196.587 367.275 194.99C366.968 193.394 366.335 191.878 365.415 190.537C364.495 189.197 363.308 188.06 361.928 187.199C360.548 186.339 359.005 185.772 357.395 185.534C354.075 185.047 350.693 185.832 347.928 187.734C345.163 189.635 343.22 192.511 342.49 195.785L340.386 205.667L342.578 206.123Z" fill="white"/>
</g>
<path d="M329.496 199.517L394.536 209.803L384.523 287.252L375.229 283.52L365.234 284.203L315.082 276.266L329.496 199.517Z" fill="#E2BC82"/>
<path opacity="0.6" d="M329.496 199.517L394.536 209.803L384.523 287.252L375.229 283.52L365.234 284.203L315.082 276.266L329.496 199.517Z" fill="white"/>
<path d="M365.234 284.203L375.229 283.52L384.523 287.252L394.536 209.803L379.666 207.455L365.234 284.203Z" fill="#E2BC82"/>
<path opacity="0.3" d="M365.234 284.203L375.229 283.52L384.523 287.252L394.536 209.803L379.666 207.455L365.234 284.203Z" fill="white"/>
<path d="M335.885 232.878L362.783 237.135C364.228 237.364 365.213 238.719 364.984 240.163L364.946 240.405C364.717 241.848 363.361 242.833 361.916 242.604L335.019 238.347C333.574 238.119 332.589 236.763 332.818 235.32L332.856 235.078C333.085 233.634 334.441 232.65 335.885 232.878Z" fill="white"/>
</svg>
